<?xml version="1.0" encoding="UTF-8"?>
<svg width="94px" height="95px" viewBox="0 0 94 95" version="1.1" xmlns="http://www.w3.org/2000/svg" xmlns:xlink="http://www.w3.org/1999/xlink">
    <!-- Generator: Sketch 46 (44423) - http://www.bohemiancoding.com/sketch -->
    <title>Page 1</title>
    <desc>Created with Sketch.</desc>
    <defs>
        <polygon id="path-1" points="47.5000969 0 95 0 95 95 47.5000969 95 0.000193877551 95 0.000193877551 0"></polygon>
    </defs>
    <g id="Page-1" stroke="none" stroke-width="1" fill="none" fill-rule="evenodd">
        <g id="Mobile" transform="translate(-265.000000, -691.000000)">
            <g id="Group-2" transform="translate(-2.000000, 252.000000)">
                <g id="Page-1" transform="translate(267.000000, 439.000000)">
                    <g id="Group-3">
                        <mask id="mask-2" fill="white">
                            <use xlink:href="#path-1"></use>
                        </mask>
                        <g id="Clip-2"></g>
                        <path d="M89.3469388,47.5 C89.3469388,71.1637245 70.1637245,90.3469388 46.5,90.3469388 C22.8362755,90.3469388 3.65306122,71.1637245 3.65306122,47.5 C3.65306122,23.8362755 22.8362755,4.65306122 46.5,4.65306122 C70.1520918,4.68020408 89.3197959,23.8479082 89.3469388,47.5 M46.5,0 C20.2664286,0 -1,21.2664286 -1,47.5 C-1,73.7335714 20.2664286,95 46.5,95 C72.7335714,95 94,73.7335714 94,47.5 C93.9680102,21.28 72.72,0.0319897959 46.5,0" id="Fill-1" fill="#4A90E2" mask="url(#mask-2)"></path>
                    </g>
                    <path d="M70.9866988,60.4370037 C69.9308727,59.7050135 68.493562,59.9826988 67.7739433,61.0581161 C67.77298,61.0600785 67.7710533,61.0630222 67.7691266,61.0649846 C67.0080841,62.2228244 59.9467654,72.2901432 47.0090424,72.2901432 C34.0713194,72.2901432 27.0100007,62.2228244 26.2489582,61.0453602 C25.5331929,59.9620931 24.0901021,59.6736144 23.0265692,60.402661 C21.962073,61.1317076 21.679813,62.6005941 22.3955783,63.6858236 C23.3203894,65.0781751 31.6918573,77 47.0090424,77 C62.3262275,77 70.6976953,65.0781751 71.6032396,63.714279 C72.3170782,62.6378805 72.0415616,61.1768437 70.9866988,60.4468159 L70.9866988,60.4370037 Z" id="Fill-4" fill="#4A90E2"></path>
                    <path d="M35.5,29 C38.5374132,29 41,31.4625868 41,34.5 C41,37.5374132 38.5374132,40 35.5,40 C32.4625868,40 30,37.5374132 30,34.5 C30,31.4625868 32.4625868,29 35.5,29" id="Fill-6" fill="#4A90E2"></path>
                    <path d="M59.5,29 C62.5374132,29 65,31.4625868 65,34.5 C65,37.5374132 62.5374132,40 59.5,40 C56.4625868,40 54,37.5374132 54,34.5 C54,31.4625868 56.4625868,29 59.5,29" id="Fill-8" fill="#4A90E2"></path>
                </g>
            </g>
        </g>
    </g>
</svg>